<svg id="Layer_1" data-name="Layer 1" xmlns="http://www.w3.org/2000/svg" viewBox="0 0 120 60"><defs><style>.cls-1,.cls-4{fill:#231f20;}.cls-2,.cls-3{fill:#fff;}.cls-2{fill-rule:evenodd;}.cls-3{stroke:#231f20;stroke-miterlimit:10;stroke-width:2px;}.cls-4{font-size:4.48px;font-family:MyriadPro-Regular, Myriad Pro;}</style></defs><title>3</title><rect class="cls-1" x="32.96" y="2.58" width="53.91" height="53.91"/><path class="cls-2" d="M67.31,24.29H62.64a1.64,1.64,0,0,0-1.36.77c-.05.11-.66,1.19-.73,1.31s0,.81.36.79h2.75l-.53,1c-.22.4-.91.43-.75,0,0-.06.15-.28.15-.28H59.65l-.39.71c-.16.3.21.52.6.5h4.86a1.14,1.14,0,0,0,1-.52s.89-1.59.91-1.64a.42.42,0,0,0-.42-.57H63.37l.54-1c.16-.23.84-.37.77,0l-.19.33H67.3s.34-.59.41-.73-.07-.67-.4-.64Z"/><polygon class="cls-2" points="68.95 24.29 66.28 29.06 72.74 29.06 73.13 28.32 69.49 28.32 70.19 27.08 73.84 27.08 74.23 26.33 70.58 26.33 71.24 25.02 78.3 25.02 78.3 24.29 68.95 24.29 68.95 24.29"/><path class="cls-2" d="M77.78,25.73h0l.11.2h.12l-.12-.21a.12.12,0,0,0,.12-.13c0-.11-.08-.14-.2-.14h-.19v.48h.11v-.2Zm0-.08v-.12h.07s.1,0,.1,0,0,.07-.08.07Zm.53,0a.44.44,0,0,0-.46-.45.45.45,0,0,0,0,.9.44.44,0,0,0,.46-.45Zm-.13,0a.33.33,0,0,1-.33.35h0a.35.35,0,0,1,0-.7.33.33,0,0,1,.33.35Z"/><path class="cls-2" d="M60,24.29H55.21a1.16,1.16,0,0,0-1.13.56l-2,3.52a.46.46,0,0,0,.44.69c.26,0,4.61,0,4.78,0a1.23,1.23,0,0,0,1-.46c.07-.11,2-3.59,2.07-3.71a.43.43,0,0,0-.42-.6Zm-3.59,1.12-1.52,2.74c-.06.16.32.29.46.29a1,1,0,0,0,.69-.29c.1-.16,1.44-2.6,1.5-2.7s-.24-.27-.39-.27-.64,0-.74.23Z"/><path class="cls-2" d="M39.7,28.37v.69H50a1.16,1.16,0,0,0,.94-.51,5.75,5.75,0,0,0,.81-1.44.61.61,0,0,0-.22-.66,1.44,1.44,0,0,0,.84-.46,4.88,4.88,0,0,0,.65-1.16c.11-.24.11-.54-.29-.54h-5.7l-2.26,4.08Zm8.62-1.27-.72,1.27H49c.17,0,.29-.1.5-.32s.33-.59.38-.7.06-.23-.16-.25Zm1-1.92-.63,1.16h1.38c.16,0,.35-.1.38-.17s.36-.64.4-.71a.19.19,0,0,0-.18-.28Z"/><rect class="cls-3" x="32.96" y="49.48" width="53.91" height="7.01"/><text class="cls-4" transform="translate(41.39 54.34)">PROFESSIONAL</text></svg>