<svg id="Layer_1" data-name="Layer 1" xmlns="http://www.w3.org/2000/svg" viewBox="0 0 120 60"><defs><style>.cls-1{fill:#231f20;}.cls-2{fill:#da2127;}</style></defs><title>1</title><path class="cls-1" d="M35,40.16c-3.71,0-5.38-1.64-5.38-4.74V25.84h3.14v9.77A2.16,2.16,0,0,0,35.12,38a4,4,0,0,0,2.09-.46V25.84h3.14V39A11.2,11.2,0,0,1,35,40.16Z"/><path class="cls-1" d="M51.18,37.79a3,3,0,0,1-1.63.31c-2.42,0-3.42-2.08-3.42-5.25,0-3,.93-5.34,3.66-5.34a4.91,4.91,0,0,1,1.39.18v10.1m3.14,1.33V19.44H51.18V26a7.52,7.52,0,0,0-2.09-.26C45.49,25.71,43,28.45,43,33s2.36,7.1,6.46,7.1A9.89,9.89,0,0,0,54.32,39.12Z"/><rect class="cls-1" x="57.6" y="25.84" width="3.14" height="14.03"/><rect class="cls-2" x="57.6" y="18.36" width="3.14" height="4.84"/><path class="cls-1" d="M71.75,39.88v-10c0-1.15-.52-2.34-2.5-2.34a5.08,5.08,0,0,0-2.16.39v11.9H64V26.6a12.54,12.54,0,0,1,5.43-1c4.14,0,5.51,2,5.51,4.3v10Z"/><path class="cls-1" d="M95.77,40a3.52,3.52,0,0,1-3.8-3.8V27.87H90.42v-2H92v-3.1l3.14-.88v4h2.26v2H95.11v8.2c0,1.1.43,1.83,1.51,1.83a2.62,2.62,0,0,0,.75-.13v2A3.86,3.86,0,0,1,95.77,40Z"/><path class="cls-1" d="M108,31.52l-5.74.88c-.08-3.36,1.18-4.87,3-4.87s2.73,1.15,2.73,4m2.93,1.25c.13-4.71-1.87-7.19-5.55-7.19s-5.92,2.66-5.92,7.24c0,4.74,2.49,7.31,6.43,7.31a9.47,9.47,0,0,0,4.58-1l-.74-2a7.55,7.55,0,0,1-3.51.78c-2.29,0-3.52-1.3-3.78-3.9Z"/><path class="cls-1" d="M85,38.06a4.44,4.44,0,0,1-1.88.39c-1.83,0-2.91-.78-2.91-2.6,0-2.56,1.83-3.21,4.79-3.57v5.78M88,39.2V30.51c0-3.62-2.26-4.84-5.12-4.84a11,11,0,0,0-4.76,1.06l.72,1.83a8.2,8.2,0,0,1,3.48-.86C83.9,27.7,85,28.19,85,30v.76c-4.22.42-7.75,1.48-7.75,5.18,0,2.71,1.88,4.27,5.66,4.27A10.87,10.87,0,0,0,88,39.2Z"/><path class="cls-2" d="M8.83,43.75H6V42H8.83v1.75M11.56,42v1.75h99.25V42Z"/><path class="cls-1" d="M8.81,39.86v-1c0-8.8,7.51-15.95,16.75-15.95h1V20.09h-1C14.79,20.09,6,28.5,6,38.83v1Z"/><path class="cls-1" d="M25.56,25.67c-7.7,0-14,5.9-14,13.16v1H22.78v-3H14.57a10.83,10.83,0,0,1,9.22-8.46V36.9h0v3h2.8V25.67Z"/><path class="cls-1" d="M114,24.13a1.62,1.62,0,1,1-1.6-1.57A1.58,1.58,0,0,1,114,24.13Zm-2.83,0a1.23,1.23,0,0,0,1.23,1.26,1.21,1.21,0,0,0,1.2-1.25,1.22,1.22,0,1,0-2.43,0Zm1,.81h-.36V23.37a4.23,4.23,0,0,1,.6,0,.84.84,0,0,1,.54.12.41.41,0,0,1,.16.33.4.4,0,0,1-.33.38v0c.16.05.23.17.28.38a1.22,1.22,0,0,0,.12.38h-.39a1.52,1.52,0,0,1-.12-.38c0-.16-.13-.24-.33-.24h-.17Zm0-.88h.17c.2,0,.37-.06.37-.23s-.11-.24-.34-.24l-.2,0Z"/></svg>