<svg id="Layer_1" data-name="Layer 1" xmlns="http://www.w3.org/2000/svg" viewBox="0 0 120 60"><defs><style>.cls-1{fill:#ff903e;}.cls-2{fill:#7000c4;}</style></defs><title>2</title><path class="cls-1" d="M68.79,23s2.8-4.83,5.47,0,9,15.68,9,15.68,2.63,4.67-2.07,4.63-19.94,0-19.94,0-4-.24-1.76-4.26,9.33-16,9.33-16"/><path class="cls-2" d="M60,4.59s1.59-2.77,3.47,0c1.38,2.06,6,10.37,6,10.37a4.79,4.79,0,0,1-.32,4.29c-1,1.78-12.36,21.16-12.36,21.16s-1.63,2.75-4.09,2.72-11.58,0-11.58,0-3.17-.24-1.34-3.38S60,4.59,60,4.59"/><path d="M39.79,49.79c.12,0,.17-.1.17-.19a.73.73,0,0,0-.08-.25.16.16,0,0,1,0-.08.13.13,0,0,0,0-.08c-.11-.25-.22-.49-.32-.74s-.21-.51-.34-.76l-.06-.13a.69.69,0,0,0-.07-.15.64.64,0,0,0-.1-.13.17.17,0,0,0-.14-.05l0,0-.06,0a.74.74,0,0,0-.15.26,1.69,1.69,0,0,1-.12.28c-.11.2-.21.41-.3.62s-.18.41-.28.62a2,2,0,0,0-.1.21c0,.07,0,.14-.08.22a.24.24,0,0,0,0,.2.35.35,0,0,0,.23.09h1.63a1.07,1.07,0,0,0,.27,0m3.54,2.47.05.11a.89.89,0,0,1,0,.13.66.66,0,0,1,0,.14.11.11,0,0,1-.09.1.71.71,0,0,1-.36,0H41.72a.47.47,0,0,1-.17,0,.37.37,0,0,1-.22-.13.5.5,0,0,1-.1-.19,1.07,1.07,0,0,0-.09-.19L41,51.89a3.54,3.54,0,0,0-.16-.34l-.08-.18c0-.06,0-.1-.07-.15a.4.4,0,0,0-.12-.1.57.57,0,0,0-.22-.07H37.44a.81.81,0,0,0-.41.08.38.38,0,0,0-.15.16,2.14,2.14,0,0,1-.1.22,2.35,2.35,0,0,0-.19.39c-.05.13-.11.27-.17.4a1.47,1.47,0,0,0-.1.22.42.42,0,0,1-.16.19.38.38,0,0,1-.19.06l-.29,0h-1a.8.8,0,0,1-.36,0,.1.1,0,0,1-.07-.1.71.71,0,0,1,0-.14.69.69,0,0,1,.05-.13l0-.11c.09-.17.18-.34.25-.51l.24-.51a.6.6,0,0,0,.08-.16c0-.06.05-.12.07-.17s.15-.31.22-.47.15-.32.22-.46l.21-.43a4.25,4.25,0,0,1,.21-.43,13.17,13.17,0,0,0,.57-1.2c.18-.4.37-.8.59-1.2l0-.1a.69.69,0,0,1,0-.1c.07-.14.15-.3.22-.46s.14-.32.22-.47.08-.16.12-.24a.35.35,0,0,1,.17-.19.65.65,0,0,1,.18-.05h1.61a.39.39,0,0,1,.24,0,.33.33,0,0,1,.2.18,2,2,0,0,0,.12.26l.18.37a3,3,0,0,0,.18.36.61.61,0,0,1,.05.12l.06.13.21.43c.06.14.13.28.2.43.18.35.36.72.52,1.09s.34.73.53,1.09a.16.16,0,0,1,0,.08s0,.05,0,.08a3.54,3.54,0,0,0,.16.34c.05.12.11.23.17.35a.65.65,0,0,1,.08.17s0,.11.07.17q.18.35.33.69t.33.69a.09.09,0,0,1,0,.06.07.07,0,0,0,0,.06"/><path d="M47.64,44.91c1.77,0,3,.39,3.64,1.25a1.62,1.62,0,0,1,.21.35,3.73,3.73,0,0,1,.14.4.44.44,0,0,1,0,.2.34.34,0,0,1-.06.17.37.37,0,0,1-.19.08l-.28,0H50l-.21,0a.31.31,0,0,1-.21-.17,1.28,1.28,0,0,0-.11-.24,2,2,0,0,0-.14-.23.76.76,0,0,0-.21-.19,2.5,2.5,0,0,0-.37-.18,1.93,1.93,0,0,0-.41-.09,3.69,3.69,0,0,0-.49,0,4.13,4.13,0,0,0-.5,0,1.31,1.31,0,0,0-.43.09,1.32,1.32,0,0,0-.49.25.73.73,0,0,0-.24.44.32.32,0,0,0,0,.17.54.54,0,0,0,0,.15.59.59,0,0,0,.31.31,4.7,4.7,0,0,0,.47.18,1.57,1.57,0,0,0,.31.08l.32.07c.25.07.5.12.75.17l.78.16a.34.34,0,0,0,.14,0l.13,0,.57.14a2.07,2.07,0,0,1,.53.19,5.88,5.88,0,0,1,.63.36,2.05,2.05,0,0,1,.5.48,1,1,0,0,1,.12.2l.09.22a.13.13,0,0,1,0,.06.06.06,0,0,0,0,0,1.4,1.4,0,0,1,.05.44.11.11,0,0,1,0,.11v.2c0,.08,0,.16-.05.23a1.29,1.29,0,0,1,0,.21,2,2,0,0,1-.18.36,2.13,2.13,0,0,1-.23.32.44.44,0,0,1-.11.09.43.43,0,0,0-.1.09l-.15.13a.78.78,0,0,1-.18.11l-.14.09-.15.08a3,3,0,0,1-.49.2l-.53.15a1.68,1.68,0,0,1-.39.07L48.8,53a.62.62,0,0,1-.19,0,.47.47,0,0,0-.17,0h-.83a.65.65,0,0,0-.2,0,.58.58,0,0,1-.19,0H47.1l-.11,0-.34,0a1.6,1.6,0,0,1-.33-.07,5.49,5.49,0,0,1-1.17-.44,2.45,2.45,0,0,1-.84-.69,1.82,1.82,0,0,1-.34-.61.31.31,0,0,1,0-.13.89.89,0,0,0,0-.14,1.12,1.12,0,0,1,0-.21.2.2,0,0,1,.06-.19.28.28,0,0,1,.2-.1l.3,0h1.09a.73.73,0,0,1,.22,0,.27.27,0,0,1,.17.18,1.06,1.06,0,0,0,.1.26,1,1,0,0,0,.14.24,1.68,1.68,0,0,0,.18.21l.15.11.16.1a3,3,0,0,0,.73.25l.19,0,.2,0h.07a1.24,1.24,0,0,0,.3,0l.29,0h.14l.14,0a.32.32,0,0,0,.14,0,2.35,2.35,0,0,0,.73-.26.85.85,0,0,0,.38-.54.32.32,0,0,0,0-.17.37.37,0,0,0-.05-.15,1,1,0,0,0-.47-.46L49.3,50a2.76,2.76,0,0,0-.46-.15l-.5-.13-.18,0-.2,0-.45-.09-.43-.09-.1,0-.1,0-.2,0-.2,0-.61-.18a4.87,4.87,0,0,1-.53-.21,3.82,3.82,0,0,1-.58-.37,1.76,1.76,0,0,1-.4-.5.84.84,0,0,1-.08-.2c0-.07,0-.14-.07-.22a1.3,1.3,0,0,1,0-.27,1.4,1.4,0,0,1,0-.3.45.45,0,0,0,0-.13c0-.08.05-.16.07-.23a2,2,0,0,1,.08-.22,2.29,2.29,0,0,1,.52-.64,4,4,0,0,1,.75-.48,2.66,2.66,0,0,1,.58-.21l.67-.13.26,0a1.24,1.24,0,0,0,.27,0h.13a.41.41,0,0,1,.12-.07"/><path d="M59.75,45.07h.35a.68.68,0,0,1,.27.05.13.13,0,0,1,.06.07.38.38,0,0,1,0,.1v.05a.31.31,0,0,1,0,.1V46a.76.76,0,0,0,0,.15.34.34,0,0,1,0,.14.29.29,0,0,1-.27.19H58.3a3.1,3.1,0,0,0-.46,0,.3.3,0,0,0-.27.2.17.17,0,0,0,0,.1.18.18,0,0,1,0,.1.66.66,0,0,0,0,.15c0,.05,0,.1,0,.15v5.1a2.33,2.33,0,0,1,0,.29.24.24,0,0,1-.17.18.75.75,0,0,1-.22,0H55.71a.31.31,0,0,1-.2-.08.32.32,0,0,1-.06-.22V47a.76.76,0,0,0,0-.15.17.17,0,0,1,0-.1.14.14,0,0,0,0-.09.3.3,0,0,0-.28-.2l-.5,0h-1.6a1.32,1.32,0,0,1-.3,0,.39.39,0,0,1-.17-.09.29.29,0,0,1,0-.14c0-.06,0-.12,0-.17v-.53a1.81,1.81,0,0,1,0-.25.2.2,0,0,1,.13-.15.39.39,0,0,1,.15,0h6.93Z"/><path d="M62,45.07H68.6a.32.32,0,0,1,.21.09.08.08,0,0,1,0,.07.32.32,0,0,0,0,.09v.12a.86.86,0,0,1,0,.16c0,.06,0,.11,0,.16a1,1,0,0,0,0,.17.86.86,0,0,1,0,.16.71.71,0,0,0,0,.16.22.22,0,0,1-.13.16.41.41,0,0,1-.21,0H64.31l-.27,0a.49.49,0,0,0-.17.05.28.28,0,0,0-.12.16,1.64,1.64,0,0,0,0,.23v.93c0,.06,0,.11.05.15a.18.18,0,0,0,.1.09.32.32,0,0,0,.18.05h3.83l.25,0a.47.47,0,0,1,.17,0,.19.19,0,0,1,.1.13.71.71,0,0,1,0,.21v.22c0,.08,0,.15,0,.21v.15a.25.25,0,0,1,0,.13.22.22,0,0,1-.11.14.49.49,0,0,1-.19,0h-4a.44.44,0,0,0-.21.07.28.28,0,0,0-.13.15.41.41,0,0,0,0,.11v1.13a1.4,1.4,0,0,0,0,.23.2.2,0,0,0,.12.15l.09,0,.13,0h4.52a.48.48,0,0,1,.18,0,.23.23,0,0,1,.15.12.28.28,0,0,1,0,.13s0,.11,0,.16v.5a1.85,1.85,0,0,1,0,.24.21.21,0,0,1-.12.17.33.33,0,0,1-.2,0H62.21l-.34,0a.3.3,0,0,1-.21-.1.23.23,0,0,1,0-.17V45.28a.23.23,0,0,1,0-.15.41.41,0,0,1,.21-.1h.05c0,.06,0,.06.07,0"/><path d="M76.4,47.65a.83.83,0,0,0,0-.28,1.08,1.08,0,0,0,0-.26.13.13,0,0,1,0-.08.13.13,0,0,0,0-.07,1,1,0,0,0-.59-.49,2.08,2.08,0,0,0-.54-.1H73a.05.05,0,0,1,0,0h0a.3.3,0,0,0-.22.1.28.28,0,0,0-.06.22c0,.09,0,.18,0,.27v1.26a.28.28,0,0,0,.07.21.38.38,0,0,0,.18.09,1.14,1.14,0,0,0,.28,0h1.62a.52.52,0,0,0,.18,0h.18l.21,0,.2,0a2,2,0,0,0,.41-.14.92.92,0,0,0,.29-.23.68.68,0,0,0,.12-.22c0-.08,0-.17.07-.27m2.25,4.88a.11.11,0,0,1,0,.12.29.29,0,0,1-.07.08.38.38,0,0,1-.22.05H77.29l-.38,0a.33.33,0,0,1-.25-.13.63.63,0,0,1-.12-.34,1.59,1.59,0,0,0-.07-.39.19.19,0,0,0,0-.08s0-.05,0-.07a.86.86,0,0,1,0-.28,1,1,0,0,0,0-.26.28.28,0,0,1,0-.1c0-.08,0-.16-.05-.24a1.14,1.14,0,0,0-.06-.25,2,2,0,0,0-.26-.45.77.77,0,0,0-.42-.28.7.7,0,0,0-.14,0l-.15,0a2.38,2.38,0,0,0-.56-.07H73l-.19,0a.27.27,0,0,0-.14.07.41.41,0,0,0-.1.33c0,.15,0,.29,0,.41V52a1.09,1.09,0,0,1,0,.18c0,.06,0,.12,0,.18v.15a.28.28,0,0,1,0,.13.21.21,0,0,1-.16.13.44.44,0,0,1-.17,0H70.89a.71.71,0,0,1-.37-.07.21.21,0,0,1-.11-.2V45.65a2.18,2.18,0,0,0,0-.25.28.28,0,0,1,.06-.2.45.45,0,0,1,.21-.11H75.9a2.33,2.33,0,0,1,.37,0h.14l.15,0,.19,0a.65.65,0,0,1,.19,0,3.92,3.92,0,0,1,.62.29,2.13,2.13,0,0,1,.48.4.34.34,0,0,1,.09.12.31.31,0,0,0,.09.11.81.81,0,0,1,.15.31q.06.16.12.36a.28.28,0,0,1,0,.09.15.15,0,0,0,0,.09v.1a.48.48,0,0,1,0,.21.88.88,0,0,1,0,.2.44.44,0,0,0,0,.15.4.4,0,0,1,0,.15,2.88,2.88,0,0,1-.13.31,1.67,1.67,0,0,1-.18.28.46.46,0,0,1-.07.07l-.07.07-.09.09-.1.08-.17.1-.18.11-.11.07a.32.32,0,0,0-.08.09.08.08,0,0,0,0,.11l.1.07a2.61,2.61,0,0,0,.28.17.93.93,0,0,1,.23.21,1.67,1.67,0,0,1,.26.37q.09.19.18.45a.76.76,0,0,1,0,.21.76.76,0,0,0,0,.21V51s0,.08,0,.12a.25.25,0,0,1,0,.08.34.34,0,0,0,0,.1.28.28,0,0,1,0,.09.18.18,0,0,0,0,.1.85.85,0,0,1,0,.23.85.85,0,0,0,0,.23l0,.2a1.46,1.46,0,0,1,0,.2.59.59,0,0,1,.06.16"/><path d="M85,49.79c.12,0,.17-.1.17-.19a.73.73,0,0,0-.08-.25.16.16,0,0,1,0-.08.13.13,0,0,0,0-.08c-.12-.25-.23-.49-.33-.74s-.22-.51-.33-.76l-.06-.13a.69.69,0,0,0-.07-.15.64.64,0,0,0-.1-.13.17.17,0,0,0-.14-.05l0,0-.06,0a.63.63,0,0,0-.16.26,1.69,1.69,0,0,1-.12.28c-.11.2-.21.41-.3.62s-.17.41-.27.62a2,2,0,0,0-.1.21,1.43,1.43,0,0,0-.08.22.24.24,0,0,0,0,.2.35.35,0,0,0,.23.09h1.62a1.24,1.24,0,0,0,.28,0m3.53,2.47,0,.11a.39.39,0,0,1,.05.13.33.33,0,0,1,0,.14.14.14,0,0,1-.1.1.71.71,0,0,1-.36,0H86.94a.39.39,0,0,1-.16,0,.37.37,0,0,1-.22-.13.5.5,0,0,1-.1-.19,1.07,1.07,0,0,0-.09-.19l-.14-.35a3.54,3.54,0,0,0-.16-.34L86,51.37a.71.71,0,0,0-.08-.15.4.4,0,0,0-.12-.1.58.58,0,0,0-.21-.07H82.67a.83.83,0,0,0-.42.08.38.38,0,0,0-.15.16l-.09.22a2.35,2.35,0,0,0-.19.39c0,.13-.11.27-.17.4a1.47,1.47,0,0,0-.1.22.42.42,0,0,1-.16.19.47.47,0,0,1-.2.06l-.29,0h-1a.73.73,0,0,1-.35,0,.12.12,0,0,1-.08-.1.71.71,0,0,1,0-.14.69.69,0,0,1,0-.13l0-.11c.09-.17.18-.34.25-.51s.16-.35.24-.51a.6.6,0,0,0,.08-.16.89.89,0,0,1,.08-.17c.07-.15.15-.31.22-.47s.15-.32.22-.46.14-.29.2-.43a4.25,4.25,0,0,1,.21-.43c.21-.39.41-.79.59-1.2s.37-.8.57-1.2a.69.69,0,0,0,0-.1.69.69,0,0,1,0-.1c.07-.14.15-.3.22-.46s.15-.32.23-.47a1.34,1.34,0,0,0,.12-.24.35.35,0,0,1,.17-.19l.17-.05h1.62a.47.47,0,0,1,.25,0,.33.33,0,0,1,.2.18,2,2,0,0,0,.12.26c.06.12.12.24.17.37a3,3,0,0,0,.18.36.61.61,0,0,1,.05.12.69.69,0,0,1,0,.13l.21.43c.06.14.13.28.21.43.18.35.36.72.52,1.09s.33.73.52,1.09a.16.16,0,0,1,0,.08s0,.05,0,.08a3.59,3.59,0,0,0,.17.34c0,.12.11.23.16.35a.65.65,0,0,1,.08.17s0,.11.07.17c.12.23.22.46.32.69s.21.46.33.69a.09.09,0,0,1,0,.06.09.09,0,0,0,0,.06"/></svg>