<svg id="Layer_1" data-name="Layer 1" xmlns="http://www.w3.org/2000/svg" viewBox="0 0 120 60"><title>4</title><path d="M11.54,30.18V23c0-3.59,2.13-5.41,5.51-5.41,3.79,0,5.54,2.22,5.54,5.28v2.46l-4.12,0V22.85c0-1.24-.48-1.94-1.42-1.94s-1.39.7-1.39,1.94v7.61c0,1.24.51,1.92,1.39,1.92s1.39-.68,1.42-1.92v-2.6l4.12,0v2.48c0,3-1.75,5.31-5.51,5.31C13.67,35.67,11.54,33.85,11.54,30.18Z"/><path d="M29,35.49H25.22V17H29Z"/><path d="M31.54,30.92v-4.3c0-2.55,1.39-4.68,4.9-4.68s4.88,2.15,4.88,4.68v2.81h-6v2.14c0,.86.43,1.34,1.11,1.34s1.06-.48,1.06-1.28V30.36l3.77,0-.08,1.39c-.18,2-1.57,3.89-4.75,3.89C32.93,35.67,31.54,33.5,31.54,30.92Zm6-3.72V26.06c0-.86-.4-1.39-1.09-1.39s-1.08.53-1.08,1.39V27.2Z"/><path d="M43.57,32.43v-.75c0-2.94,2.48-3.95,5.69-4.76V25.76a1,1,0,0,0-1-1.09c-.75,0-1,.56-1,1.19v.94l-3.61,0v-.91c0-2.6,2-3.92,4.62-3.92,2.94,0,4.76,1.32,4.76,4.22v9.33H49.36v-2a3.18,3.18,0,0,1-3.08,2.15C44.68,35.67,43.57,34.56,43.57,32.43Zm5.67-1.71V29.25c-1.32.2-2,.71-2,1.77v.91c0,.68.23,1,.71,1C48.76,32.94,49.24,32.16,49.24,30.72Z"/><path d="M63.06,22v3.72a1.86,1.86,0,0,0-1.23-.4c-1.09,0-2.2,1-2.2,3v7.13h-3.8V22.25h3.8v1.89h.07a2.9,2.9,0,0,1,2.58-2.2A3,3,0,0,1,63.06,22Z"/><path d="M63.4,28.87h5.66V32H63.4Z"/><path d="M71,30.18V23c0-3.59,2.13-5.41,5.51-5.41,3.8,0,5.54,2.22,5.54,5.28v2.46l-4.12,0V22.85c0-1.24-.48-1.94-1.42-1.94s-1.39.7-1.39,1.94v7.61c0,1.24.51,1.92,1.39,1.92s1.39-.68,1.42-1.92v-2.6l4.12,0v2.48c0,3-1.74,5.31-5.51,5.31C73.08,35.67,71,33.85,71,30.18Z"/><path d="M84.35,30.92v-4.3c0-2.53,1.42-4.68,4.93-4.68s4.88,2.15,4.88,4.68v4.3c0,2.58-1.39,4.75-4.88,4.75S84.35,33.47,84.35,30.92Zm6,.38v-5c0-1-.4-1.55-1.11-1.55s-1.09.54-1.09,1.55v5c0,1,.38,1.54,1.09,1.54S90.39,32.28,90.39,31.3Z"/><path d="M111.93,26.59v8.9h-3.81V26.27c0-1-.28-1.5-.91-1.5s-.94.51-1,1.27v9.45h-3.79V26.27c0-1-.28-1.5-.91-1.5s-1,.66-1,1.57v9.15h-3.8V22.25h3.8v1.64l.07,0a3,3,0,0,1,2.73-2,2.6,2.6,0,0,1,2.63,2.23l.13,0a3.14,3.14,0,0,1,2.83-2.25C111,21.94,111.93,23.74,111.93,26.59Z"/><path d="M46.46,42.32l-.37,1.11h-1l1.63-4.8H48l1.7,4.8H48.61l-.39-1.11ZM48,41.47c-.34-1-.55-1.66-.67-2.09h0c-.11.48-.35,1.23-.63,2.09Z"/><path d="M50.41,43.43v-4.8h1.28c.6,1.08,1.71,3,1.93,3.55h0c-.05-.5-.05-1.34-.05-2.12V38.63h.94v4.8H53.3c-.51-.94-1.74-3.17-2-3.72h0c0,.42,0,1.4,0,2.26v1.46Z"/><path d="M58.1,38.63h1v1.88h1.93V38.63h1v4.8h-1V41.36H59.14v2.07h-1Z"/><path d="M67.61,41.63c0-.82,0-1.73,0-2.28h0c-.22,1-.7,2.58-1.16,4.08h-.89c-.35-1.31-.84-3.13-1-4.09h0c0,.56.07,1.55.07,2.37v1.72h-1v-4.8h1.54c.38,1.26.8,2.83.94,3.55h0c.12-.64.64-2.32,1-3.55h1.49v4.8h-1Z"/><path d="M73.3,41.36H71v1.22h2.54l-.13.85H70v-4.8h3.4v.85H71v1h2.3Z"/><path d="M80.7,42a1.92,1.92,0,0,1-2.07,1.55,2.18,2.18,0,0,1-2.24-2.44,2.26,2.26,0,0,1,2.29-2.49,1.82,1.82,0,0,1,2,1.55h-1a.94.94,0,0,0-1-.74c-.86,0-1.19.77-1.19,1.64s.29,1.67,1.21,1.67a1,1,0,0,0,1-.74Z"/><path d="M86.16,41A2.3,2.3,0,0,1,83.8,43.5,2.24,2.24,0,0,1,81.5,41a2.28,2.28,0,0,1,2.36-2.46A2.23,2.23,0,0,1,86.16,41Zm-3.59,0c0,.94.41,1.65,1.26,1.65s1.25-.78,1.25-1.63-.37-1.62-1.26-1.62S82.57,40.08,82.57,41Z"/><path d="M91.3,41.63c0-.82,0-1.73,0-2.28h0c-.22,1-.7,2.58-1.16,4.08h-.88c-.35-1.31-.85-3.13-1.06-4.09h0c0,.56.06,1.55.06,2.37v1.72h-1v-4.8h1.55c.37,1.26.79,2.83.93,3.55h0c.12-.64.65-2.32,1-3.55H92.3v4.8h-1Z"/><path d="M93.69,38.63h2a1.52,1.52,0,0,1,1.72,1.49c0,1-.79,1.52-1.74,1.52h-.92v1.79h-1Zm1,2.18h.79c.48,0,.82-.18.82-.67s-.36-.68-.8-.68h-.81Z"/><path d="M98.71,42.32l-.38,1.11h-1l1.63-4.8h1.31l1.7,4.8h-1.1l-.39-1.11Zm1.53-.85c-.34-1-.56-1.66-.68-2.09h0c-.12.48-.36,1.23-.63,2.09Z"/><path d="M102.65,43.43v-4.8h1.29c.6,1.08,1.7,3,1.92,3.55h0c-.06-.5-.06-1.34-.06-2.12V38.63h.94v4.8h-1.22c-.51-.94-1.74-3.17-2-3.72h0c0,.42,0,1.4,0,2.26v1.46Z"/><path d="M109.25,43.43V41.74a.29.29,0,0,0,0-.16l-1.65-2.95h1.17c.37.73.85,1.69,1.09,2.21.21-.5.73-1.51,1.1-2.21H112l-1.67,2.94a.2.2,0,0,0,0,.15v1.71Z"/></svg>