<svg id="Layer_1" data-name="Layer 1" xmlns="http://www.w3.org/2000/svg" viewBox="0 0 120 60"><defs><style>.cls-1{fill:#03408a;}.cls-2{fill:#ceb164;}.cls-3{font-size:8.57px;font-family:Railway, Railway;}</style></defs><title>6</title><path d="M78.27,20.37l.26,0c.28.25.66.15,1,.31s.8.33,1.2.49h0c.15.27.29.55.66.54h0c0,.08,0,.14.12.14h0a6,6,0,0,0,.75,1.24,5.11,5.11,0,0,1,0,3.73,3.55,3.55,0,0,1-2.81,2.42l2.84,3.19.86,1c.06.07.14.16.09.27s-.15.05-.23.05c-.81,0-1.62,0-2.42,0a.55.55,0,0,1-.43-.25C79.1,32.27,78,31.07,77,29.8a1.32,1.32,0,0,0-1.27-.55,10,10,0,0,1-1.34,0c-.35,0-.46.06-.45.44,0,1.29,0,2.59,0,3.88H72.54c-1,0-1,0-1-1q0-5.83,0-11.69c0-.36.1-.47.46-.46,1.94,0,3.88,0,5.83,0C78,20.43,78.13,20.48,78.27,20.37Zm-2,2.32h-2c-.19,0-.29,0-.29.26,0,1.26,0,2.53,0,3.79,0,.19.08.25.26.25,1.35,0,2.7.08,4-.07a2,2,0,0,0,1.82-2,2,2,0,0,0-1.62-2.14A13.89,13.89,0,0,0,76.25,22.69Z"/><path d="M70.11,33.74c-.83,0-1.65,0-2.47,0-.26,0-.3-.15-.37-.32-.57-1.29-1.14-2.57-1.7-3.86a.44.44,0,0,0-.47-.32c-1.56,0-3.12,0-4.67,0a.44.44,0,0,0-.47.33c-.56,1.27-1.13,2.54-1.67,3.82a.49.49,0,0,1-.54.35q-1,0-2,0c-.39,0-.39-.11-.25-.41l4.11-9.14c.53-1.19,1.07-2.38,1.59-3.57a.41.41,0,0,1,.45-.29c.72,0,1.44,0,2.16,0,.19,0,.32,0,.4.23l5.85,13.07S70.11,33.67,70.11,33.74ZM64.44,27l-1.67-3.81c-.53,1.21-1,2.36-1.53,3.5-.14.3,0,.32.23.32Z"/><path d="M94,33.66V33.5c.15-.08.12-.22.12-.35V29.63c0-.11,0-.23-.11-.29s-.3-.08-.45-.08h-6.1c-.14.13-.08.3-.08.45,0,1.13,0,2.27,0,3.4,0,.42-.1.59-.55.57-.64,0-1.29,0-1.93,0v-.18c.12-.16.06-.33.06-.5,0-4,0-7.94,0-11.91,0-.72-.08-.63.65-.64h1.77c0,2,0,4.09,0,6.13,0,.37.12.46.47.45,1.92,0,3.85,0,5.78,0,.4,0,.51-.1.51-.5,0-1.89,0-3.77,0-5.66,0-.31.08-.44.41-.42a12.71,12.71,0,0,0,1.38,0c.4,0,.48.12.47.49,0,3,0,6,0,9.07,0,1.06,0,2.13,0,3.2,0,.25,0,.35-.34.4A17.12,17.12,0,0,1,94,33.66Z"/><path d="M104.6,28.21c0,1.7,0,3.4,0,5.1,0,.32-.06.46-.42.44a15.14,15.14,0,0,0-1.65,0c-.38,0-.5-.07-.5-.49,0-3.35,0-6.71,0-10.06,0-.57,0-.57-.57-.57H98.15c-.25,0-.35-.05-.34-.33,0-.54,0-1.09,0-1.64,0-.23,0-.32.3-.32q5.22,0,10.42,0c.24,0,.32.06.32.31,0,.55,0,1.1,0,1.64,0,.28-.08.35-.34.34-1.17,0-2.34,0-3.5,0-.33,0-.42.08-.42.41C104.61,24.76,104.6,26.49,104.6,28.21Z"/><path d="M94,33.66a17.12,17.12,0,0,0,2-.07c.29-.05.34-.15.34-.4,0-1.07,0-2.14,0-3.2,0-3,0-6,0-9.07,0-.37-.07-.53-.47-.49a12.71,12.71,0,0,1-1.38,0c-.33,0-.41.11-.41.42,0,1.89,0,3.77,0,5.66,0,.4-.11.51-.51.5-1.93,0-3.86,0-5.78,0-.35,0-.48-.08-.47-.45,0-2,0-4.09,0-6.13a.85.85,0,0,1,0,.42q0,2.85,0,5.7c0,.33.08.44.43.44q2.85,0,5.7,0c.38,0,.44-.12.44-.47,0-1.9,0-3.8,0-5.7,0-.36.06-.51.46-.48a12.82,12.82,0,0,0,1.64,0c.33,0,.46.07.44.42,0,.7,0,1.41,0,2.12,0,3.48,0,7,0,10.45,0,.33-.07.45-.42.43-.58,0-1.15,0-1.73,0C94.21,33.74,94.06,33.82,94,33.66Z"/><path d="M78.27,20.37c-.14.11-.31.06-.46.06-2,0-3.89,0-5.83,0-.36,0-.46.1-.46.46q0,5.85,0,11.69c0,1,0,1,1,1h1.38c0,.24-.24.17-.38.17-.57,0-1.15,0-1.72,0-.34,0-.44-.08-.44-.42,0-2.09,0-4.18,0-6.26V20.72c0-.19-.08-.4.27-.4C73.86,20.35,76.06,20.35,78.27,20.37Z"/><path d="M87.35,20.43H85.58c-.73,0-.65-.08-.65.64,0,4,0,7.94,0,11.91,0,.17.06.34-.06.5,0-.72,0-1.44,0-2.15,0-3.51,0-7,0-10.53,0-.34.06-.48.44-.46.57,0,1.15,0,1.72,0C87.12,20.36,87.26,20.28,87.35,20.43Z"/><path class="cls-1" d="M14.07,42.42l.06-.14a.12.12,0,0,0,.1-.13l.06-.13c.06,0,.11,0,.11-.1h0c.13,0,.16-.17.18-.29s0,0,0,0a.24.24,0,0,0,.16-.21s0,0,0,0a.26.26,0,0,0,.17-.26L15,41c.31-.12.38-.4.46-.68.7-1.21,1.52-2.35,2.28-3.53l5.65-8.66,7.56-11.53.18-.21c-.2,1.08-.37,2.05-.55,3q-1,5.4-2,10.78c-.12.66-.25,1.32-.35,2,0,.27-.24.37-.41.5l-5.49,4.17q-3.48,2.64-7,5.27c-.35.27-.74.5-1.1.74-.11.06-.26.09-.26.26h0c-.08,0-.15,0-.17.1h0c-.19.07-.19-.05-.19-.18h0a.18.18,0,0,0,.1-.15h0c.21,0,.25-.17.24-.35h0Zm2.45-2.34a5.73,5.73,0,0,0,1.28-.91c3-2.28,6.05-4.59,9.08-6.87a1.41,1.41,0,0,0,.6-.9c.57-2.95,1.16-5.9,1.75-8.85l.52-2.66a1,1,0,0,0-.36.41l-4.32,6.62Q21.44,32.47,17.81,38c-.44.67-.86,1.36-1.29,2l0,0v0Z"/><path class="cls-1" d="M50.37,37.23,16,42.66l0-.07c.38-.29.75-.59,1.13-.87,3.65-2.75,7.33-5.46,10.94-8.26a2.58,2.58,0,0,1,2.42-.5c4.08.9,8.17,1.72,12.26,2.58l7.51,1.58.14,0Zm-3.89-.11v0L46.1,37l-9-1.84-7.51-1.55a.63.63,0,0,0-.55.13c-2.8,2.12-5.6,4.22-8.41,6.33L18.86,41.4l0,.06Z"/><path class="cls-1" d="M31.93,17.88,50.32,36.37l0,.08-1.64-.32L38.21,34l-7.74-1.61a5.88,5.88,0,0,0-.73-.14c-.32,0-.33-.18-.28-.45C30,29,30.48,26.12,31,23.3,31.3,21.54,31.6,19.77,31.93,17.88Zm16,17.3L48,35.1,32.4,19.73c-.25,1.38-.53,2.89-.8,4.41-.42,2.33-.83,4.67-1.25,7-.05.29,0,.43.3.49,1.86.37,3.72.76,5.58,1.15l9.24,1.9Z"/><path class="cls-1" d="M15.81,41.6c0,.12,0,.22.16.16a.93.93,0,0,1-.46.37h0A.74.74,0,0,1,15.81,41.6Z"/><path class="cls-1" d="M17.38,39.21c-.07.24-.13.5-.41.6A1.47,1.47,0,0,1,17.38,39.21Z"/><path class="cls-1" d="M16.11,41.15c0,.16,0,.28-.21.31A.45.45,0,0,1,16.11,41.15Z"/><path class="cls-1" d="M16.11,41.68c0-.15.13-.17.22-.22A.25.25,0,0,1,16.11,41.68Z"/><path class="cls-1" d="M16.62,40.37c0,.11,0,.21-.15.25A.27.27,0,0,1,16.62,40.37Z"/><path class="cls-1" d="M16.93,39.88a.23.23,0,0,1-.15.23A.34.34,0,0,1,16.93,39.88Z"/><path class="cls-1" d="M16.77,40.15a.19.19,0,0,1-.14.18A.24.24,0,0,1,16.77,40.15Z"/><path class="cls-1" d="M15.89,41.47c0,.06,0,.11-.08.13Z"/><path class="cls-1" d="M16.32,40.82a.1.1,0,0,1-.09.11A.12.12,0,0,1,16.32,40.82Z"/><path class="cls-1" d="M16.47,40.61a.1.1,0,0,1-.09.1A.09.09,0,0,1,16.47,40.61Z"/><path class="cls-1" d="M16,41.77c0-.08.08-.09.14-.09A.15.15,0,0,1,16,41.77Z"/><path class="cls-1" d="M16.18,41.06l-.08.09Z"/><path class="cls-2" d="M15.51,42.13l0,0h0l0,0Z"/><text class="cls-3" transform="translate(55.45 43.47)">MEDIA</text></svg>